<svg xmlns="http://www.w3.org/2000/svg" width="1500" height="500" viewBox="0 0 1500 500">
  <defs>
    <linearGradient id="bgGrad" x1="0%" y1="0%" x2="100%" y2="100%">
      <stop offset="0%" style="stop-color:#1E293B"/>
      <stop offset="100%" style="stop-color:#334155"/>
    </linearGradient>
    <linearGradient id="orangeGrad" x1="0%" y1="0%" x2="100%" y2="100%">
      <stop offset="0%" style="stop-color:#F97316"/>
      <stop offset="100%" style="stop-color:#F59E0B"/>
    </linearGradient>
  </defs>
  
  <!-- Background -->
  <rect width="1500" height="500" fill="url(#bgGrad)"/>
  
  <!-- Left side: AI brain -->
  <g transform="translate(150, 120)">
    <circle cx="100" cy="100" r="90" fill="none" stroke="#475569" stroke-width="2" opacity="0.5"/>
    <circle cx="100" cy="100" r="70" fill="none" stroke="#475569" stroke-width="2" opacity="0.7"/>
    <circle cx="100" cy="100" r="50" fill="none" stroke="#475569" stroke-width="2"/>
    <circle cx="100" cy="100" r="30" fill="url(#orangeGrad)"/>
    <text x="100" y="110" text-anchor="middle" fill="white" font-size="24">🤖</text>
  </g>
  
  <!-- Right side: Human -->
  <g transform="translate(550, 120)">
    <circle cx="80" cy="70" r="40" fill="none" stroke="#475569" stroke-width="2" opacity="0.5"/>
    <circle cx="80" cy="70" r="40" fill="white" opacity="0.1"/>
    <circle cx="80" cy="60" r="25" fill="none" stroke="white" stroke-width="3"/>
    <path d="M40 140 Q80 100, 120 140" fill="none" stroke="white" stroke-width="3" opacity="0.5"/>
  </g>
  
  <!-- Center: Connection -->
  <g transform="translate(400, 220)">
    <line x1="100" y1="30" x2="200" y2="30" stroke="url(#orangeGrad)" stroke-width="4"/>
    <polygon points="280,30 260,22 260,38" fill="url(#orangeGrad)"/>
    <text x="190" y="25" text-anchor="middle" fill="url(#orangeGrad)" font-size="18" font-weight="600">+</text>
  </g>
  
  <!-- Logo -->
  <g transform="translate(650, 180)">
    <rect width="120" height="120" rx="25" fill="url(#orangeGrad)"/>
    <text x="60" y="78" text-anchor="middle" fill="white" font-family="Inter, system-ui, sans-serif" font-size="40" font-weight="bold">hw</text>
  </g>
  
  <text x="800" y="260" fill="white" font-family="Inter, system-ui, sans-serif" font-size="48" font-weight="700">humanwork.ai</text>
  <text x="800" y="310" fill="#94A3B8" font-family="Inter, system-ui, sans-serif" font-size="24">When AI needs hands.</text>
  
  <!-- CTA -->
  <g transform="translate(800, 350)">
    <rect width="180" height="48" rx="24" fill="white"/>
    <text x="90" y="32" text-anchor="middle" fill="#1E293B" font-family="Inter, system-ui, sans-serif" font-size="16" font-weight="600">Get Started →</text>
  </g>
</svg>
